<svg width="1440" height="1336" viewBox="0 0 1440 1336" fill="none" xmlns="http://www.w3.org/2000/svg">
<rect x="-29.2004" y="-13.5832" width="295.679" height="461.471" stroke="#181818" stroke-width="0.833598"/>
<rect x="267.315" y="-13.5832" width="295.679" height="461.471" stroke="#181818" stroke-width="0.833598"/>
<rect x="563.823" y="-13.5832" width="295.679" height="461.471" stroke="#181818" stroke-width="0.833598"/>
<rect x="860.339" y="-13.5832" width="295.679" height="461.471" stroke="#181818" stroke-width="0.833598"/>
<rect x="1156.85" y="-13.5832" width="295.679" height="461.471" stroke="#181818" stroke-width="0.833598"/>
<rect x="-29.2004" y="448.721" width="295.679" height="461.471" stroke="#181818" stroke-width="0.833598"/>
<rect x="267.315" y="448.721" width="295.679" height="461.471" stroke="#181818" stroke-width="0.833598"/>
<rect x="563.823" y="448.721" width="295.679" height="461.471" stroke="#181818" stroke-width="0.833598"/>
<rect x="860.339" y="448.721" width="295.679" height="461.471" stroke="#181818" stroke-width="0.833598"/>
<rect x="1156.85" y="448.721" width="295.679" height="461.471" stroke="#181818" stroke-width="0.833598"/>
<rect x="-29.2004" y="911.026" width="295.679" height="461.471" stroke="#181818" stroke-width="0.833598"/>
<rect x="267.315" y="911.026" width="295.679" height="461.471" stroke="#181818" stroke-width="0.833598"/>
<rect x="563.823" y="911.026" width="295.679" height="461.471" stroke="#181818" stroke-width="0.833598"/>
<rect x="860.339" y="911.026" width="295.679" height="461.471" stroke="#181818" stroke-width="0.833598"/>
<rect x="1156.85" y="911.026" width="295.679" height="461.471" stroke="#181818" stroke-width="0.833598"/>
</svg>
