<svg width="25" height="25" viewBox="0 0 25 25" fill="none" xmlns="http://www.w3.org/2000/svg">
<path d="M15.7969 12.2695C15.7969 12.8629 15.6209 13.4429 15.2913 13.9362C14.9616 14.4296 14.4931 14.8141 13.9449 15.0412C13.3967 15.2682 12.7935 15.3276 12.2116 15.2119C11.6297 15.0961 11.0951 14.8104 10.6756 14.3909C10.256 13.9713 9.97027 13.4367 9.85452 12.8548C9.73876 12.2729 9.79817 11.6697 10.0252 11.1215C10.2523 10.5733 10.6368 10.1048 11.1302 9.77512C11.6235 9.44548 12.2035 9.26953 12.7969 9.26953C13.5918 9.272 14.3534 9.58887 14.9155 10.1509C15.4775 10.713 15.7944 11.4746 15.7969 12.2695ZM22.1719 8.14453V16.3945C22.1719 17.7869 21.6188 19.1223 20.6342 20.1068C19.6496 21.0914 18.3143 21.6445 16.9219 21.6445H8.67188C7.27949 21.6445 5.94413 21.0914 4.95956 20.1068C3.975 19.1223 3.42188 17.7869 3.42188 16.3945V8.14453C3.42188 6.75214 3.975 5.41679 4.95956 4.43222C5.94413 3.44765 7.27949 2.89453 8.67188 2.89453H16.9219C18.3143 2.89453 19.6496 3.44765 20.6342 4.43222C21.6188 5.41679 22.1719 6.75214 22.1719 8.14453ZM17.2969 12.2695C17.2969 11.3795 17.033 10.5095 16.5385 9.76946C16.044 9.02944 15.3412 8.45267 14.519 8.11207C13.6967 7.77148 12.7919 7.68236 11.919 7.856C11.0461 8.02963 10.2442 8.45821 9.61489 9.08755C8.98556 9.71689 8.55697 10.5187 8.38334 11.3916C8.20971 12.2645 8.29882 13.1693 8.63942 13.9916C8.98001 14.8139 9.55679 15.5167 10.2968 16.0111C11.0368 16.5056 11.9069 16.7695 12.7969 16.7695C13.9903 16.7695 15.1349 16.2954 15.9789 15.4515C16.8228 14.6076 17.2969 13.463 17.2969 12.2695ZM18.7969 7.39453C18.7969 7.17203 18.7309 6.95452 18.6073 6.76952C18.4837 6.58451 18.308 6.44032 18.1024 6.35517C17.8968 6.27002 17.6706 6.24774 17.4524 6.29115C17.2342 6.33456 17.0337 6.4417 16.8764 6.59904C16.719 6.75637 16.6119 6.95683 16.5685 7.17505C16.5251 7.39328 16.5474 7.61948 16.6325 7.82505C16.7177 8.03062 16.8619 8.20632 17.0469 8.32994C17.2319 8.45355 17.4494 8.51953 17.6719 8.51953C17.9702 8.51953 18.2564 8.401 18.4674 8.19003C18.6783 7.97905 18.7969 7.6929 18.7969 7.39453Z" fill="#6A7C94"/>
</svg>
