<svg width="25" height="25" viewBox="0 0 25 25" fill="none" xmlns="http://www.w3.org/2000/svg">
<g clip-path="url(#clip0_2699_4308)">
<path d="M19.1319 18.6085H16.4669V14.4315C16.4669 13.4355 16.4469 12.1535 15.0769 12.1535C13.6879 12.1535 13.4759 13.2375 13.4759 14.3585V18.6085H10.8099V10.0195H13.3699V11.1895H13.4049C13.7629 10.5155 14.6329 9.80253 15.9329 9.80253C18.6329 9.80253 19.1329 11.5805 19.1329 13.8935V18.6085H19.1319ZM7.79987 8.84453C7.59643 8.84479 7.39493 8.8049 7.20694 8.72714C7.01894 8.64937 6.84814 8.53527 6.70433 8.39137C6.56052 8.24746 6.44653 8.07659 6.36889 7.88854C6.29124 7.7005 6.25148 7.49898 6.25187 7.29553C6.25207 6.98937 6.34305 6.69013 6.51332 6.43568C6.68358 6.18122 6.92547 5.98297 7.20841 5.86598C7.49134 5.749 7.80261 5.71855 8.10286 5.77847C8.4031 5.8384 8.67883 5.98601 8.89518 6.20264C9.11153 6.41927 9.25879 6.69519 9.31833 6.99551C9.37786 7.29583 9.347 7.60706 9.22966 7.88985C9.11231 8.17263 8.91374 8.41427 8.65907 8.5842C8.40439 8.75413 8.10504 8.84473 7.79887 8.84453H7.79987ZM9.13587 18.6085H6.46287V10.0195H9.13688V18.6085H9.13587ZM20.4669 3.26953H5.12587C4.38987 3.26953 3.79688 3.84953 3.79688 4.56653V19.9725C3.79688 20.6895 4.39088 21.2695 5.12488 21.2695H20.4629C21.1969 21.2695 21.7969 20.6895 21.7969 19.9725V4.56653C21.7969 3.84953 21.1969 3.26953 20.4629 3.26953H20.4659H20.4669Z" fill="#6A7C94"/>
</g>
<defs>
<clipPath id="clip0_2699_4308">
<rect width="24" height="24" fill="white" transform="translate(0.796875 0.269531)"/>
</clipPath>
</defs>
</svg>
