<svg width="25" height="25" viewBox="0 0 25 25" fill="none" xmlns="http://www.w3.org/2000/svg">
<g clip-path="url(#clip0_2699_4303)">
<path d="M22.9611 5.92448C22.1977 6.26218 21.3881 6.48395 20.5591 6.58248C21.4329 6.05991 22.0868 5.2375 22.3991 4.26848C21.5791 4.75648 20.6801 5.09848 19.7431 5.28348C19.1137 4.61006 18.2795 4.16344 17.3701 4.01307C16.4607 3.86269 15.5271 4.01697 14.7144 4.45193C13.9017 4.8869 13.2555 5.57817 12.8762 6.41827C12.497 7.25838 12.4059 8.20026 12.6171 9.09748C10.9542 9.01414 9.32746 8.582 7.84241 7.82915C6.35737 7.07629 5.04725 6.01953 3.99712 4.72748C3.62542 5.36593 3.43008 6.09171 3.43112 6.83048C3.43112 8.28048 4.16913 9.56148 5.29113 10.3115C4.62713 10.2906 3.97776 10.1113 3.39713 9.78848V9.84048C3.39733 10.8062 3.73149 11.7421 4.34297 12.4895C4.95445 13.237 5.80561 13.75 6.75212 13.9415C6.13574 14.1085 5.48943 14.1331 4.86213 14.0135C5.12899 14.8447 5.64913 15.5717 6.34972 16.0926C7.0503 16.6135 7.89625 16.9023 8.76912 16.9185C7.90161 17.5998 6.9083 18.1035 5.84601 18.4007C4.78371 18.6978 3.67325 18.7827 2.57812 18.6505C4.48982 19.8799 6.71522 20.5326 8.98812 20.5305C16.6811 20.5305 20.8881 14.1575 20.8881 8.63048C20.8881 8.45048 20.8831 8.26848 20.8751 8.09048C21.694 7.49865 22.4007 6.7655 22.9621 5.92548L22.9611 5.92448Z" fill="#6A7C94"/>
</g>
<defs>
<clipPath id="clip0_2699_4303">
<rect width="24" height="24" fill="white" transform="translate(0.796875 0.269531)"/>
</clipPath>
</defs>
</svg>
